<svg id="Layer_1" data-name="Layer 1" xmlns="http://www.w3.org/2000/svg" viewBox="0 0 710.67 415.28"><defs><style>.cls-1{fill:#fff;}.cls-2{fill:none;stroke:#fff;stroke-linejoin:round;stroke-width:14px;}.cls-3{fill:#39f;}</style></defs><title>PurusLogo</title><path class="cls-1" d="M767.85,439.24H753.08c-4.65,0-8.43,4.65-8.43,10.38v22.3h5.26v15.82a2.86,2.86,0,0,0,5.72,0V471.92h9.68v15.82a2.86,2.86,0,0,0,2.86,2.86h0a2.86,2.86,0,0,0,2.85-2.86V471.92h5.26v-22.3C776.28,443.89,772.5,439.24,767.85,439.24Z" transform="translate(-65.61 -90)"/><polyline class="cls-2" points="15.81 59.1 15.81 399.46 604.88 399.46"/><polyline class="cls-2" points="104.94 15.81 694.86 15.81 694.86 350.24"/><path class="cls-1" d="M92,117.42V101.6a2.86,2.86,0,0,0-5.72,0v15.82H76.58V101.6a2.86,2.86,0,0,0-5.72,0v15.82H65.61v22.3c0,5.73,3.78,10.38,8.43,10.38H88.81c4.65,0,8.43-4.65,8.43-10.38v-22.3Z" transform="translate(-65.61 -90)"/><path class="cls-1" d="M679.31,473.65a9.82,9.82,0,0,0-9.82,9.82v12a9.83,9.83,0,0,0,9.82,9.83h25V473.65Z" transform="translate(-65.61 -90)"/><path class="cls-1" d="M161.86,90h-25v31.63h25a9.83,9.83,0,0,0,9.83-9.83v-12A9.83,9.83,0,0,0,161.86,90Z" transform="translate(-65.61 -90)"/><path class="cls-1" d="M160.2,181.1h2c.33,0,.5.21.5.63l1-.63h35q34.15,0,40.93,13.87v1.89c-.49,0-1,.63-1.48,1.89l5.43,6.3a3.31,3.31,0,0,1,2-.63q0,2.22,5.92,7.57c.5,1.68,1,2.52,1.48,2.52h1c.25-2.1.74-3.15,1.48-3.15q2.46,2.52,2.46,4.41L256.38,217h-.49l-3-.63c-1.64.84-2.46,1.48-2.46,1.89a3.21,3.21,0,0,1-1.48-.63,48.34,48.34,0,0,1-6.91.63h-.49a4.15,4.15,0,0,1-2.47-.63l-3,.63-4.93-.63a19.87,19.87,0,0,1-3.95.63l-3-.63-.49,1.26v3.16c0,.63,1,1.47,3,2.52a12.32,12.32,0,0,0,2-.63q18.75,0,18.75,4.41h1l2.47-.63.49,1.26v1.26c-.57,2.21-4.36,3.47-11.34,3.78h-9.37c-.33,0-.5-.2-.5-.63-.9,0-1.72,1.06-2.46,3.16.49,1.68,1,2.52,1.48,2.52H251c2,.21,3,.84,3,1.89q0,6-.49,12a43.28,43.28,0,0,1,.49,5.67q-.61,5.06-2,5.05c-.83,0-1.65-1.9-2.47-5.68H248c-1,.42-1.48,1.68-1.48,3.78v1.27a12.94,12.94,0,0,0,1,5,6.06,6.06,0,0,0-.5,2.52,28.67,28.67,0,0,1,1,5h.49c.17,0,.66-.41,1.48-1.26q2,.94,2,1.89c0,.95-.83,1.58-2.47,1.9,0-.84-.33-1.27-1-1.27H248v3.79h1l1-.63a36.73,36.73,0,0,1,4.94,6.93l2.46-1.89h1.48a1.12,1.12,0,0,1,1,1.26c-1.24,3.15-2.22,4.84-3,5a13.65,13.65,0,0,0-2-.63q-1.11,0-6.91,6.94V304a27.42,27.42,0,0,1-7.89,15.76q-1,2.54-7.4,6.94c0,.95-.82,1.58-2.47,1.89L225.8,328q-4.44,4.41-22.19,4.41c0,.43-.17.63-.5.63a3.31,3.31,0,0,0-2-.63H197.2a3.39,3.39,0,0,0-3.46,2.53l-2.46-.64h-2l-.49,3.16v1.89c.57,1.68,2.55,3.36,5.92,5v1.26a28.94,28.94,0,0,1-.49,5.68,70.31,70.31,0,0,1,.49,8.19v3.16q0,4.56-1.48,5h-1l-2.46-1.89q-2,.63-2,3.15l1.48,3.15v.63c0,1.26-.66,1.89-2,1.89v1.26q4.56,6.32,13.81,8.2l.49,1.26q-2,4.41-2,6.31v.63c0,.63.49,1.26,1.48,1.89h2l2.47-.63a7.8,7.8,0,0,1,1.48,3.78q-.37,3.78-1,3.78l.5,6.31V420l.49,3.15-1.48,1.26-3.45-.63a15,15,0,0,1-4.44,1.26h-1.48c-.33,0-.49-.21-.49-.63a3.29,3.29,0,0,1-1.48.63c-.33,0-.5-.21-.5-.63l-2.46.63H171.55q-2.72,0-4-3.15l.49-7.57c0-.84-.16-1.26-.49-1.26l.49-4.41v-6.94q0-3.93-.49-9.45,0-6.94,2.47-6.94v-.63a6.5,6.5,0,0,0-5.43-3.15,51.37,51.37,0,0,1-8.38,1.26l-.5-1.26V381a13,13,0,0,0,2-7.57l-.5-6.3q1-3.78,2-3.78c.65,0,1,.21,1,.63l4.93-.63h1q3.45,0,10.85.63l.5-1.26V362q0-4.41-4.94-4.41-2-.63-8.88-.63h-4.43q-2-.94-2-5,0-5,.5-12a119.8,119.8,0,0,1-1.48-12V317.9q0-6.61.49-13.87a60.47,60.47,0,0,1-.49-9.45,5.12,5.12,0,0,1,3.45-1.89h3.45c1-.42,1.48-1.68,1.48-3.79v-3.15q0-1.26-1-1.26h-3.94q-3.45,0-3.45-4.41V267.47l.49-3.78c0-.42-.17-.63-.49-.63l1.48-9.46q-.5-5.52-.5-6.94a23.32,23.32,0,0,1,.5-4.41,71.18,71.18,0,0,1-.5-8.83q0-14.49,2.47-14.5c3.94,0,5.92-.84,5.92-2.52q0-6.93-3-6.93a15,15,0,0,1-4.44,1.26l-2-4.42a64.63,64.63,0,0,0,.49-6.93l-.49-1.26c0-.42.16-.63.49-.63l-.49-7.57v-6.3Q156.26,182,160.2,181.1Zm34,39.08a41.6,41.6,0,0,0,.49,5.68q-.49,8.5-.49,12.61c0,.94.16,3.26.49,6.93q0,2.68-6.41,9.46l-.5,3.15v.63q.12,1.26,1,1.26-.5,8.52-.49,12.61v8.83c0,.84.49,1.26,1.48,1.26a14.86,14.86,0,0,1,4.44-1.26l2.46,3.78,2.47-.63h2c.49,0,1,.63,1.48,1.89a5.77,5.77,0,0,0-.49,1.89,8.23,8.23,0,0,1,1,3.15c-1.64.95-2.46,1.58-2.46,1.9l-2.47-.63H196.7c-.49,0-1,.63-1.48,1.89v1.26c0,.94,1.15,1.79,3.46,2.52q23.17-7.25,23.18-10.09v-2.52q0-1.26-1-1.26h-4.44q-1.47,0-2-5a5.77,5.77,0,0,1,.49-1.89l-.49-3.79v-1.26l1.48-6.3V242.88l-1.48-2.52v-6.31q0-10.71-4-10.71v-1.26a17.16,17.16,0,0,1,2-3.16q0-.78-4.44-3.15Q194.24,217.66,194.24,220.18ZM196.7,287v1.26h1Q197.69,287,196.7,287Zm7.89,98.35h1V386h-1Z" transform="translate(-65.61 -90)"/><path class="cls-1" d="M261.69,176.37l5.92.63h2c1.31,0,2-.21,2-.63L275,177h11.34a68,68,0,0,1,7.89.63,3.25,3.25,0,0,1,1.48-.63l2.47,1.89-.5,4.41v1.9a6.13,6.13,0,0,0,.5,2.52q-.37,2.52-1,2.52a6.26,6.26,0,0,0,.49,2.52q-.48,8.84-.49,15.13v.63c0,2.31.17,5.26.49,8.83a8.13,8.13,0,0,0-.49,3.15,7.3,7.3,0,0,0,3.45,5l1-.63h2.47c.49,0,1,.63,1.48,1.89v.64c0,.94-1.32,1.57-3.95,1.89v-.63q-3.33,1.26-3.95,3.78c.33,2.21.5,3.47.5,3.78a41.86,41.86,0,0,0-.5,5.68h-.49a6.71,6.71,0,0,0-3.45-1.27l-.49,1.27.49,3.15-.49,4.41c0,6.3.65,9.46,2,9.46q2.46,0,2.46,20.8v3.78c-.41,4.21-1.06,6.31-2,6.31l-2-2.52-.49,1.26v5c.08.84.41,1.26,1,1.26h.49l1-.63q1.48,2.69,1.48,14.5v4.41q0,11.52-.49,29a5.77,5.77,0,0,1,.49,1.89,9.44,9.44,0,0,0-.49,3.78l1,2.52-.49,3.15.49,6.31c-.49,1.68-1,2.52-1.48,2.52a3.28,3.28,0,0,1-2-.63q-4.94,1.42-4.93,1.89l-2.47-.63H273.53a12.89,12.89,0,0,0-3.95.63,12.16,12.16,0,0,0-3.95-.63H260.7c-.49,0-1-1.05-1.48-3.15q.5-10.41.49-15.76V250.13a6.13,6.13,0,0,1,.5-2.52,6.09,6.09,0,0,1-.5-2.52v-14.5q0-2.37,7.4-3.15v-1.27l-2.46-.63h-3.46c-.49,0-1-.63-1.48-1.89V192.13q0-3.47-.49-8.83l.49-1.26a6.22,6.22,0,0,1-.49-2.52C259.22,179.1,260,178.05,261.69,176.37Zm60.17,0,4.94.63h18.25q11.83,0,11.83,2.52v.63a41.73,41.73,0,0,1-.49,5.68c0,.42.16.63.49.63l-.49,6.3v27.11q0,5,3.45,5h3.46c.49,0,1,.63,1.48,1.89-.5,1.69-1,2.53-1.48,2.53h-3.46q-3.45,0-3.45,5l.49,1.26c-.33,2.1-.65,3.15-1,3.15l.49,3.16v21.43a107,107,0,0,0,.49,10.72,60.64,60.64,0,0,0-.49,9.45v5.68l.49,7.56-3,1.89c-.32,0-.49-.2-.49-.63l-3.45.63H330.74c-2.55,0-4,.85-4.44,2.53v1.89l2.47.63h24.17c2.46,0,3.78.63,3.94,1.89l-.49,3.15.49,2.52c-.33,2.11-.65,3.16-1,3.16l.49,6.3V365.5l-1.48,3.15q1.35,9.47,5.92,9.46c0,.84,1.31,1.47,3.95,1.89.08-.84.41-1.26,1-1.26h.5a1.12,1.12,0,0,1,1,1.26v.63c-1.31,1.68-2,2.95-2,3.79l.49,3.78q0,5.52-10.36,22.06-1.11,0-7.39,5.68,0,1.41-13.32,5.67a89.18,89.18,0,0,1-17.27,1.89q-18.12,0-29.59-9.45Q273,394.51,273,380q-12.82-.78-12.82-5.67l-.5-3.78c.66-1.9,1.32-2.94,2-3.16h5.42a4.15,4.15,0,0,0,2.47-.63l3,.63h13.81a3.24,3.24,0,0,0,2-.63c3.95,1.26,5.92,2.32,5.92,3.16l1-.63h.49c2.06,0,3.37,2.1,3.95,6.3a54.4,54.4,0,0,0,8.38,3.15,3.29,3.29,0,0,1,2-.63q6.17,8.2,11.34,8.2,5.79-3.46,7.4-5.68V380q0-1.26-1-1.26h-4.93a4.13,4.13,0,0,1-4-2.52V373.7l1.48-2.52V338.39q0-7.87.5-14.5a105.16,105.16,0,0,1-.5-12.61V298c0-1.26.17-1.89.5-1.89l-.5-3.15V230.59q0-2.52,6.91-3.15c0-.74-.82-1.37-2.47-1.9l-3,.63-1.48-2.52v-35.3l-.49-3.79a5.71,5.71,0,0,0,.49-1.89l-.49-3.15C319.89,178.89,320.55,177.84,321.86,176.37Zm10.85,158.87,1.48,1.26h2c.24,0,.74-.63,1.48-1.89q-1-2.83-2-3.15h-1.48C333.21,331.88,332.71,333.14,332.71,335.24Z" transform="translate(-65.61 -90)"/><path class="cls-1" d="M368.48,179.52c.65,0,1,.21,1,.63q6.66-.63,9.87-.63H410.4q34.65,0,43.41,15.76c.49,0,1,.63,1.48,1.89l-.5,5.68,1,.63a3.25,3.25,0,0,1,1.48-.63q3.83,6.3,10.36,6.3l.49,1.26V211l-.49,1.26q-12.47.64-19.73.63h-14.8c-.49,0-1,.63-1.48,1.9a3.38,3.38,0,0,0,3.45,2.52h18.75c.65,0,2,.63,3.94,1.89a25,25,0,0,0,3-.63q2.6,0,3,8.83a5.77,5.77,0,0,0-.49,1.89c0,1.26.16,1.89.49,1.89l-.49,7.56v16.39a139,139,0,0,1-2.47,25.22c1.32,1.26,3.45,2.11,6.42,2.52v1.26c0,1.27-3,2.11-8.88,2.53q0,.63-1,.63a11.51,11.51,0,0,1-3.45-.63,53.24,53.24,0,0,1-5.43.63l-7.89-.63c-2,.84-3,1.68-3,2.52v1.26c0,.63.66,1.26,2,1.89.33,0,1.65-.21,3.95-.63q6.41.63,10.36.63l1,1.89v.63l-8.88,8.2v2.52q6.91,1.89,14.8,19.54l-1,2.53q-17,.63-24.67.63H419.77a27.61,27.61,0,0,0-13.31-3.79c-1.65.85-2.47,1.48-2.47,1.9,0,.62.16,3.15.49,7.56q-2.58,2.52-14.3,2.52h-.5a1.12,1.12,0,0,0-1,1.26V339q2.46,5.21,2.46,6.94h3.95q1.84,0,4.44,2.52A3.37,3.37,0,0,1,403,346c1,0,1.48.84,1.48,2.52,0,.42-.16.63-.49.63a22.55,22.55,0,0,0,.49,2.52,41.6,41.6,0,0,1-.49,5.68c0,.31.16,2,.49,5q0,2.83-1,13.87,0,3.31,6.9,5.67l1-.63h3.45c.49,0,1,.63,1.48,1.89,0,.32-.17,1.58-.49,3.79a6,6,0,0,1,.49,1.89,8.8,8.8,0,0,0-1,3.78v10.72c0,.42-.16.63-.49.63l.49,1.26V409a6.06,6.06,0,0,1-.49,2.52,26.2,26.2,0,0,1,1,8.2V421q0,1.89-2,1.89-2.72,0-9.37.63c-.33,0-.49-.21-.49-.63l-3.45.63H384.75a3.24,3.24,0,0,1-2-.63,3.26,3.26,0,0,1-2,.63,5.15,5.15,0,0,1-3.46-1.89q.5-7.41.5-10.72v-6.3a42.54,42.54,0,0,0-.5-6.3,28.12,28.12,0,0,0,.5-5.68V392l-.5-7.56h.5q0-3.17-9.87-3.16h-1c-.83-.84-1.32-1.26-1.48-1.26l.49-4.41V340.92a71.42,71.42,0,0,1,.49-8.83,54.87,54.87,0,0,1-.49-8.2V310.65a6.29,6.29,0,0,0-.49-2.52l1-3.15c-.24-1.68-.57-2.52-1-2.52l.49-3.15-.49-3.79q0-2.83,3.45-5l3,.63h.49c.49,0,1-.63,1.48-1.89v-5.05q0-1.26-1-1.26h-3.45q-3.45,0-3.45-4.41V233.11c0-.42.16-.63.49-.63l-.49-1.26v-7.57a6.29,6.29,0,0,0-.49-2.52c0-2.62,1.8-4.52,5.42-5.67a3.26,3.26,0,0,0,2,.63l1-1.89v-1.9q0-4.41-3-4.41a4.93,4.93,0,0,1-3,1.26c-1.31-2.1-2-3.36-2-3.78a5.77,5.77,0,0,1,.49-1.89L366,197.8l.49-4.41-.49-3.15.49-4.41-.49-4.42C367.65,180.57,368.48,179.94,368.48,179.52ZM407.93,218a3.22,3.22,0,0,0-1.47-.63q-2,.63-2,3.78v6.94q0,10.88-.49,28.37l.49,3.78q0,6.93-5.42,6.93l-1,2.52,1.48,3.16c.33,0,.49-.21.49-.63q4.44.78,4.44,2.52v.63a6.09,6.09,0,0,1-.49,2.52q1.23,5.67,2.47,5.67a9.35,9.35,0,0,0,3.45-1.26,2.49,2.49,0,0,1,2,2.53,5.77,5.77,0,0,0-.49,1.89q2.22,1.89,3.45,1.89,9.62,0,12.33-4.42v-1.26h-3c-.49,0-1-.63-1.48-1.89v-.63q1.49-8.82,4.44-8.82a4.84,4.84,0,0,1,3,.63l13.32-1.26a4.84,4.84,0,0,0,3,.63c1.31-.63,2-1.26,2-1.9V269c-.33-1.26-1.32-1.89-3-1.89H432.6c-.33,0-.5-.21-.5-.63l-1,.63h-3.95c-.49,0-1-.63-1.48-1.89v-4.41a71.42,71.42,0,0,0-.49-8.83,42.59,42.59,0,0,0,.49-6.3l-.49-7.57a42.49,42.49,0,0,0,.49-6.3q-1.85-8-4.93-12a5.77,5.77,0,0,0,.49-1.89q-3.21-2.52-5.92-2.52Zm-8.38,155.09-1,3.15,1,.63H401q1,0,1-1.26V375C401.44,375,400.62,374.33,399.55,373.07Zm25.65-40.35,4.44.63a3.29,3.29,0,0,0,1.48-.63l2.46.63,3-.63,3.46.63q8.63-.63,10.35-.63,12.33.79,12.34,2.52,1,15.28,1,17v1.26c0,.63-.49,1.26-1.48,1.9h-3.45a47.32,47.32,0,0,0-5.43,1.26h-2.46a3.24,3.24,0,0,1-2-.63q-.75,0-2,2.52a2.76,2.76,0,0,0,3,2.52h3a68,68,0,0,1,7.89.63l1-.63q2.46.95,2.46,4.41a5.77,5.77,0,0,1-.49,1.89,23.4,23.4,0,0,1,.49,4.42,42.34,42.34,0,0,0-1,4.41q1.85,5,8.88,5a5.21,5.21,0,0,1,3.94,1.89c-.41,4.73-.74,7.68-1,8.83l.49,3.78v.63a26.92,26.92,0,0,1-.49,5.05A116.35,116.35,0,0,0,478.47,421l-2,1.89h-1a82.74,82.74,0,0,0-9.37.63c-.33,0-.5-.21-.5-.63l-3.45.63H442.46q-3.69,0-4.93-10.71V393.87q0-12-2-12h-3q-6.92,0-6.91-2.52V346.59q0-3.46-3.45-12C423.55,333.35,424.54,332.72,425.2,332.72Z" transform="translate(-65.61 -90)"/><path class="cls-1" d="M478.47,176.37l5.92.63h2c1.31,0,2-.21,2-.63l3.46.63h11.34a68,68,0,0,1,7.89.63,3.25,3.25,0,0,1,1.48-.63l2.47,1.89-.49,4.41v1.9a6.13,6.13,0,0,0,.49,2.52q-.37,2.52-1,2.52a6.09,6.09,0,0,0,.5,2.52q-.5,8.84-.5,15.13v.63c0,2.31.17,5.26.5,8.83a7.92,7.92,0,0,0-.5,3.15,7.28,7.28,0,0,0,3.46,5l1-.63h2.47c.49,0,1,.63,1.48,1.89v.64c0,.94-1.32,1.57-4,1.89v-.63q-3.33,1.26-3.94,3.78c.32,2.21.49,3.47.49,3.78a41.6,41.6,0,0,0-.49,5.68H514a6.68,6.68,0,0,0-3.45-1.27l-.49,1.27.49,3.15L510,249.5c0,6.3.65,9.46,2,9.46q2.46,0,2.47,20.8v3.78c-.42,4.21-1.07,6.31-2,6.31l-2-2.52-.49,1.26v5c.08.84.41,1.26,1,1.26h.5l1-.63q1.49,2.69,1.48,14.5v4.41q0,11.52-.49,29a5.77,5.77,0,0,1,.49,1.89,9.44,9.44,0,0,0-.49,3.78l1,2.52-.5,3.15.5,6.31c-.5,1.68-1,2.52-1.48,2.52a3.29,3.29,0,0,1-2-.63q-4.93,1.42-4.93,1.89l-2.46-.63H490.31a12.89,12.89,0,0,0-3.95.63,12.14,12.14,0,0,0-3.94-.63h-4.94c-.49,0-1-1.05-1.48-3.15q.5-10.41.5-15.76V250.13a6.13,6.13,0,0,1,.49-2.52,6.09,6.09,0,0,1-.49-2.52v-14.5q0-2.37,7.39-3.15v-1.27l-2.46-.63H478c-.5,0-1-.63-1.48-1.89V192.13q0-3.47-.5-8.83l.5-1.26a6.06,6.06,0,0,1-.5-2.52C476,179.1,476.82,178.05,478.47,176.37Zm60.18,0,4.93.63h18.25q11.83,0,11.84,2.52v.63a42,42,0,0,1-.5,5.68c0,.42.17.63.5.63l-.5,6.3v27.11q0,5,3.46,5h3.45c.49,0,1,.63,1.48,1.89-.5,1.69-1,2.53-1.48,2.53h-3.45q-3.46,0-3.46,5l.5,1.26q-.49,3.15-1,3.15l.49,3.16v21.43a106.81,106.81,0,0,0,.5,10.72,60.29,60.29,0,0,0-.5,9.45v5.68l.5,7.56-3,1.89c-.33,0-.5-.2-.5-.63l-3.45.63H547.52c-2.55,0-4,.85-4.44,2.53v1.89l2.47.63h24.17c2.47,0,3.78.63,3.95,1.89l-.5,3.15.5,2.52c-.33,2.11-.66,3.16-1,3.16l.49,6.3V365.5l-1.48,3.15q1.37,9.47,5.92,9.46c0,.84,1.32,1.47,3.95,1.89.08-.84.41-1.26,1-1.26h.5a1.12,1.12,0,0,1,1,1.26v.63c-1.31,1.68-2,2.95-2,3.79l.49,3.78q0,5.52-10.35,22.06-1.11,0-7.4,5.68,0,1.41-13.32,5.67a89.08,89.08,0,0,1-17.26,1.89q-18.13,0-29.6-9.45-14.79-19.55-14.8-34.05Q477,379.22,477,374.33l-.49-3.78c.65-1.9,1.31-2.94,2-3.16h5.42a4.13,4.13,0,0,0,2.47-.63l3,.63h13.81a3.24,3.24,0,0,0,2-.63c3.95,1.26,5.92,2.32,5.92,3.16l1-.63h.49c2.06,0,3.37,2.1,4,6.3a54.4,54.4,0,0,0,8.38,3.15,3.29,3.29,0,0,1,2-.63q6.16,8.2,11.34,8.2,5.8-3.46,7.4-5.68V380q0-1.26-1-1.26h-4.93a4.11,4.11,0,0,1-3.94-2.52V373.7l1.48-2.52V338.39q0-7.87.49-14.5a105.81,105.81,0,0,1-.49-12.61V298c0-1.26.16-1.89.49-1.89l-.49-3.15V230.59q0-2.52,6.9-3.15c0-.74-.82-1.37-2.47-1.9l-3,.63-1.48-2.52v-35.3l-.5-3.79a5.79,5.79,0,0,0,.5-1.89l-.5-3.15Q536.67,178.58,538.65,176.37ZM549.5,335.24,551,336.5h2c.25,0,.74-.63,1.48-1.89-.66-1.89-1.32-2.94-2-3.15H551C550,331.88,549.5,333.14,549.5,335.24Z" transform="translate(-65.61 -90)"/><path class="cls-1" d="M626.44,177.63q19.6,0,28.61,5,8.88,4.43,16.28,17V201q0,1.26-6.41,1.89-5.43,0-5.43,4.41l2,1.26,3.46-.63,3,.63a20.36,20.36,0,0,1,4.43-.63q11.85.48,11.84,4.41v3.16c0,.63-.66,1.47-2,2.52l-3-.63c-.41,0-1.23,1.05-2.47,3.15q2,5.52,2,24c-.5,0-1,.63-1.48,1.89q-10.61.63-15.79.63H645.19a5.15,5.15,0,0,1-3.46-1.89q.49-5.52.5-6.94-1.49-17.64-3.46-17.65v-.63q0-1.74,4-4.41v-.63l-2-.63q-6,0-8.88,4.41c-2.3-.42-3.62-.63-4-.63q-5.91,0-8.38,19.54A98.89,98.89,0,0,1,623,253.28h-.49q2.84,10.41,16.27,27.11,1.23,1.26,6.42,3.15a3.32,3.32,0,0,1,1.48-.63q2.34.16,8.87,8.2c-.82.84-1.31,1.26-1.48,1.26a3.28,3.28,0,0,1-2-.63c-1.31.63-2,1.26-2,1.89v.63a15,15,0,0,0,6.41,6.31q0,2,7.4,12,12.33,21.13,12.33,32.79,1.49,0,2.47,22.06-1,8.52-1,10.72,0,2.52,6.41,3.78h3c.5,0,1,.63,1.48,1.9v.63q0,1.89-9.37,2.52c-.33,0-.49-.21-.49-.63l-2.47.63H659c-.5,0-1,.63-1.48,1.89v1.26c.08.84.41,1.26,1,1.26h10.86q5.67,0,17.26.63l.49,1.26q-2.58,12.13-7.4,15.76,0,1.89-2.46,3.79l-2.47-4.42q-2.6,0-5.42,11.35-7.15,5-18.75,5,0,1.42-4.44,1.9H634.33q-13.56,0-26.14-10.72a70,70,0,0,1-7.4-10.72v-1.89c0-.63.5-1.26,1.48-1.89H619a30.5,30.5,0,0,0,5.43-.63l3,1.26a3.86,3.86,0,0,0,2.47-3.78,5,5,0,0,0-3-1.27H600.79q-4.93,0-4.93-8.19a7.4,7.4,0,0,0-3-6.31h-3.45q-7.4,0-7.4-3.15-.49-13.23-.49-21.43v-.63a6.14,6.14,0,0,0-.5-2.53q1.37-5,2.47-5h25.16q3.45.17,3.45,1.26l2.46-.63h2l1.48,1.26q0,2.37-1,13.24,1.6,11.36,2.47,13.87,0,3.15,9.86,3.15l1-.63q2.1,0,4.44,5.68c2.13,1.68,3.78,2.52,4.93,2.52h1q2.84,0,7.4-5.67v-.64q-9.87-.47-9.87-3.15,1.49,0,2.47-12.61,0-17.49-13.81-37.19-2.48-2.37-13.81-18.29-13.82-13.4-13.82-18.91v-.63l.5-1.26,2.46.63q1,0,1-1.26v-1.26l-3.45-5.68-2.47.63h-1q-9.5,0-14.3-40.34v-5.68a82.49,82.49,0,0,1,1.48-14.5l-.49-1.26q0-6.3,8.38-6.3,1.49-1.58,1.48-5.05,0-1.41-4.93-2.52a5.23,5.23,0,0,1-1-2.52q5.81-14.34,10.36-16.39Q604.12,177.63,626.44,177.63Zm-14.3,179.05v.63q-.5,7.88-.49,9.45l1,.63h.5c.49,0,1.15-.84,2-2.52a10.52,10.52,0,0,0-1.48-5.67,6.6,6.6,0,0,0,1-1.89v-.63Zm3-119.16c.49,1.68,1,2.52,1.48,2.52.66,0,1-.41,1-1.26l-.49-3.15h-.49C616.08,235.63,615.59,236.26,615.1,237.52ZM673.3,368a77.36,77.36,0,0,1-.49,9.46h2l-1-9.46Zm0-143.11v1.89h.49v-1.89Zm4,177.16-1.48,3.15,1,.63c.5,0,1-.63,1.48-1.89v-.63C678.23,402.49,677.9,402.07,677.25,402.07Z" transform="translate(-65.61 -90)"/><rect class="cls-3" x="78.66" y="104.37" width="5.53" height="31.63" transform="translate(-104.37 111.61) rotate(-90)"/><rect class="cls-3" x="698.74" y="473.65" width="5.53" height="31.63" transform="translate(1337.4 888.93) rotate(180)"/><rect class="cls-3" x="71.3" width="5.53" height="31.63"/><rect class="cls-3" x="757.7" y="453.35" width="5.53" height="31.63" transform="translate(1164.02 -381.3) rotate(90)"/><path class="cls-3" d="M160.67,186.6l-.79,18.9s8.11,1,9.67,5.44c2.83,8-6.65,13.81-7.65,13.73l1.1,13.6L160.67,273s-1.67,7.73,6.4,7.6c4.88-.07.93,17,.93,17s-6.25,3-6.25,4-1.87,25.88-1.87,25.88,1.12,7.5,1.45,8.5-.66,16.66-.66,16.66a4,4,0,0,0,5.66,0c3-2.66,1.67-17.66,1.67-17.66l-.67-23.34,5-8.66,2.34-11.67V276.94l-5.12-9V257.6l1.14-11V229.27s10-22,0-27.67l-1.14-15Z" transform="translate(-65.61 -90)"/><path class="cls-3" d="M162.33,367.67V378s10.28-1.67,12.81,4.67-3.14,12-3.14,12l3.14,16.66S169,417,173,419.67,183.33,421,183.33,421V410l-2.66-20.67s6.33-6.33,2.66-12a37.5,37.5,0,0,0-9.93-9.66Z" transform="translate(-65.61 -90)"/><path class="cls-3" d="M266,182.33v34s13.33,7.34,7.33,14.67S266,267.67,266,267.67s-6,84.37,0,86.18,8.89-6.85,8.89-6.85V245.67L281.33,227l-6-30-3-14.67Z" transform="translate(-65.61 -90)"/><path class="cls-3" d="M266.38,370.5c0,.63.87,6.25.87,6.25s12.13-1.87,12.5,2.13S286,399.5,286,399.5s13.88,15.13,17.13,16.13,18.37,1.62,18.37,1.62S319,412,315,410.38s-11.87-5.13-11.87-5.13l-9.88-10.62L289,379.5s-4.83-6.87-7.67-7S266.38,370.5,266.38,370.5Z" transform="translate(-65.61 -90)"/><path class="cls-3" d="M481,370.13c0,.62.88,6.25.88,6.25s12.12-1.88,12.5,2.12,6.25,20.63,6.25,20.63,13.87,15.12,17.12,16.12,18.38,1.63,18.38,1.63-2.5-5.25-6.5-6.88-11.88-5.12-11.88-5.12l-9.87-10.63-4.25-15.12s-4.84-6.88-7.67-7S481,370.13,481,370.13Z" transform="translate(-65.61 -90)"/><path class="cls-3" d="M372,184.67l2,17s6.33,1.33,5.67,9.66-7.67,17-7.67,17V273s7.76,1.64,7.72,5.3,0,17,0,17-6.05,1.67-5.72,5.34-2,72-2,72,10.67,4.33,12.33,11.66,0,31,0,31l2.34,6,6.66-1.66L391,381.33s-4.67-12-8.33-10.83-1.34-62.17-1.34-62.17l10-10.69L387.67,279l-5-13L380,232.67s5.88-17.92,5.75-22.67-3.62-10.37-4.12-11.12-3.75-14.75-3.75-14.75Z" transform="translate(-65.61 -90)"/><path class="cls-3" d="M482,181.83v37s7.5,5,6.33,6.67-5,8.33-5,8.33L482,306.67,479.83,357s4.34,3.33,5.67,2.67,2.91-27.17,3-28,1.37-88.34,1.37-88.34l3-11.83s2.67-12.33,1.34-14.33-5.5-7-5.5-7l.5-29Z" transform="translate(-65.61 -90)"/><path class="cls-3" d="M615.63,394.5c-3.25-1.75-4.25-11.87-4.25-11.87l-14.13-9.88-1.25-19h-8.25V377s13.94,3,14.63,17.15" transform="translate(-65.61 -90)"/><path class="cls-3" d="M625.67,406H609s12.25,14,17.5,15,18.25,0,18.25,0,15.25-1.5,15.75-2.75-22.25-3-22.25-3" transform="translate(-65.61 -90)"/><path class="cls-3" d="M618,181.88c-14.62-1.5-27.29,24-27.29,24,7.25,1.75,9,2.75,9,2.75L599,221l-9,2.67s-1,32.66,1.67,37.33,4,16.67,4,16.67,8.33,0,8.66,1.33,6,11,6,11-5.91,5.08-4.5,6.33,33.67,36,34,40.67,7.5,37,5.5,40,7.67,2.83,7.67,2.83l-1.5-17.33-4.67-27.83S630.5,311.83,630,311.5s-16.5-15-16.5-15l4.83-7L608,274.83l-7.33-2.5s-6.5-22-5.84-22.5.67-20.5.67-20.5l9.83-4.66,1.5-18.67-6.16-2.5s10.6-17,12.54-16.67l15-4.08Z" transform="translate(-65.61 -90)"/></svg>